<?xml version="1.0" standalone="no"?>
<!DOCTYPE svg PUBLIC "-//W3C//DTD SVG 20010904//EN"
 "http://www.w3.org/TR/2001/REC-SVG-20010904/DTD/svg10.dtd">
<svg version="1.0" xmlns="http://www.w3.org/2000/svg"
 width="512.000000pt" height="512.000000pt" viewBox="0 0 512.000000 512.000000"
 preserveAspectRatio="xMidYMid meet">
<metadata>
Created by potrace 1.14, written by Peter Selinger 2001-2017
</metadata>
<g transform="translate(0.000000,512.000000) scale(0.100000,-0.100000)"
fill="#000000" stroke="none">
<path d="M0 2560 l0 -2560 2560 0 2560 0 0 2560 0 2560 -2560 0 -2560 0 0
-2560z m2756 2039 c380 -37 768 -191 1064 -422 96 -75 262 -240 340 -337 379
-475 530 -1097 409 -1689 -77 -380 -257 -722 -528 -1003 -63 -66 -149 -147
-190 -180 -510 -411 -1167 -554 -1806 -392 -486 123 -928 443 -1209 876 -75
115 -176 327 -220 460 -237 717 -59 1517 459 2057 182 190 355 317 590 432
341 166 718 235 1091 198z"/>
<path d="M2525 4373 c-58 -13 -91 -29 -127 -61 -72 -65 -100 -151 -78 -241 45
-189 278 -253 416 -115 130 129 72 357 -104 410 -45 14 -70 16 -107 7z"/>
<path d="M2058 3390 c-20 -11 -47 -36 -60 -57 l-23 -38 0 -736 0 -735 25 -37
c75 -109 238 -100 291 17 17 37 19 69 19 314 l0 272 39 0 c38 0 43 -5 336
-326 212 -232 308 -330 334 -341 80 -34 177 3 212 81 23 51 23 90 1 138 -9 20
-136 167 -282 327 -146 160 -263 294 -261 298 2 5 107 131 235 281 231 273
265 321 266 376 0 84 -83 166 -169 166 -81 0 -78 3 -401 -380 -224 -266 -234
-275 -271 -278 l-39 -3 0 273 c0 306 -5 332 -71 378 -45 33 -130 38 -181 10z"/>
<path d="M3983 3291 c-132 -33 -212 -158 -185 -288 21 -101 83 -166 182 -193
110 -30 240 36 284 142 23 54 21 152 -5 204 -47 99 -173 160 -276 135z"/>
<path d="M1020 3281 c-206 -67 -253 -330 -79 -445 156 -104 367 -7 386 176 14
143 -85 262 -228 273 -30 3 -65 1 -79 -4z"/>
<path d="M1552 1537 c-46 -14 -121 -84 -143 -132 -24 -53 -24 -147 0 -200 21
-46 88 -111 137 -131 47 -20 141 -17 189 5 22 10 59 38 82 63 44 48 63 97 63
162 0 165 -167 285 -328 233z"/>
<path d="M3398 1536 c-56 -20 -85 -42 -118 -88 -86 -118 -56 -278 64 -353 44
-27 58 -30 131 -30 73 0 86 3 130 30 130 80 155 270 51 377 -19 19 -51 43 -72
53 -50 24 -138 29 -186 11z"/>
</g>
</svg>
